<?xml version="1.0" encoding="UTF-8" standalone="no"?>
<!-- Created with Inkscape (http://www.inkscape.org/) -->

<svg
   width="90.690384mm"
   height="81.119164mm"
   viewBox="0 0 90.690386 81.119163"
   version="1.1"
   id="svg5"
   xml:space="preserve"
   xmlns:xlink="http://www.w3.org/1999/xlink"
   xmlns="http://www.w3.org/2000/svg"
   xmlns:svg="http://www.w3.org/2000/svg"><defs
     id="defs2"><linearGradient
       id="linearGradient45668"><stop
         style="stop-color:#1c5c8a;stop-opacity:1;"
         offset="0"
         id="stop45664" /><stop
         style="stop-color:#35a0bb;stop-opacity:1;"
         offset="1"
         id="stop45666" /></linearGradient><linearGradient
       id="linearGradient44487"><stop
         style="stop-color:#50c2c6;stop-opacity:1;"
         offset="0"
         id="stop44483" /><stop
         style="stop-color:#4bbdcb;stop-opacity:1;"
         offset="1"
         id="stop44485" /></linearGradient><linearGradient
       id="linearGradient39097"><stop
         style="stop-color:#1e3c61;stop-opacity:1;"
         offset="0"
         id="stop39093" /><stop
         style="stop-color:#1f6895;stop-opacity:1;"
         offset="1"
         id="stop39095" /></linearGradient><linearGradient
       id="linearGradient36260"><stop
         style="stop-color:#1e6794;stop-opacity:1;"
         offset="0"
         id="stop36256" /><stop
         style="stop-color:#51c3c7;stop-opacity:1;"
         offset="0.51620108"
         id="stop36258" /></linearGradient><linearGradient
       xlink:href="#linearGradient36260"
       id="linearGradient36262"
       x1="122.03545"
       y1="267.87363"
       x2="137.12653"
       y2="75.434662"
       gradientUnits="userSpaceOnUse"
       gradientTransform="translate(-4.318129,-3.5945211)" /><linearGradient
       xlink:href="#linearGradient39097"
       id="linearGradient39099"
       x1="61.268394"
       y1="197.96417"
       x2="92.383339"
       y2="20.720753"
       gradientUnits="userSpaceOnUse" /><linearGradient
       xlink:href="#linearGradient44487"
       id="linearGradient44489"
       x1="60.923222"
       y1="253.53693"
       x2="85.133034"
       y2="253.53693"
       gradientUnits="userSpaceOnUse"
       gradientTransform="translate(-1.4282707,-9.088524)" /><linearGradient
       xlink:href="#linearGradient45668"
       id="linearGradient45670"
       x1="53.450539"
       y1="259.07632"
       x2="55.187374"
       y2="214.44914"
       gradientUnits="userSpaceOnUse"
       gradientTransform="translate(1.1720884,-6.1831035)" /></defs><g
     id="layer1"
     style="display:inline"
     transform="translate(-78.029372,-13.07847)"><g
       id="g65185"><g
         id="g58063"
         transform="matrix(0.19980011,0,0,0.21788058,101.56471,9.1645088)"
         style="image-rendering:auto"><path
           style="fill:url(#linearGradient36262);fill-opacity:1;stroke-width:0.264583"
           d="m 185.2271,141.08347 c 1.84426,3.0107 1.43526,5.77601 0.31033,8.02707 -21.08954,37.52959 -42.03827,75.2097 -63.7889,113.62706 -2.12059,3.17447 -5.7539,3.93036 -7.48084,1.28437 L 74.181324,200.35126 c -1.004864,-2.11292 0.04182,-4.44973 0.605531,-5.74454 L 131.16318,73.324685 c 1.42219,-3.045357 3.33742,-2.783585 4.86303,-0.741934 z"
           id="path9380" /><path
           style="fill:url(#linearGradient39099);fill-opacity:1;stroke-width:0.264583"
           d="M 125.51568,59.434901 96.877668,20.9563 c -3.161253,-3.962969 -6.893211,-4.211658 -9.27766,0.594017 L 27.126856,156.49672 c -1.190646,2.80537 -1.887191,4.10842 -0.191471,6.12387 11.165155,12.40736 26.869383,28.90404 36.775774,39.98954 3.975874,0.88467 0.579101,-4.04736 2.159122,-7.0896 1.98328,-4.31847 39.414929,-85.58499 60.231299,-130.64401 0.85859,-2.158284 1.04593,-3.082587 -0.5859,-5.441649 z"
           id="path9382" /><path
           style="fill:url(#linearGradient45670);fill-opacity:1;stroke-width:0.264583"
           d="m 69.390603,220.58129 c 0.561997,1.06358 0.840327,0.39255 0.221084,2.0413 -3.721313,9.05739 -7.872023,18.17904 -12.057641,28.10116 -0.338621,0.97778 -1.132357,2.49072 -2.452277,1.96072 -5.572054,-3.54331 -11.325925,-7.55858 -16.79937,-10.90231 0,0 -0.349973,-0.45076 -0.13266,-1.12862 3.143321,-12.22413 8.000811,-26.01098 11.605893,-38.36864 0.515281,-1.36012 1.020925,-1.45659 1.744753,-0.64508 5.659199,5.93992 12.242189,12.97163 17.870218,18.94147 z"
           id="path9384" /><path
           style="display:inline;fill:url(#linearGradient44489);fill-opacity:1;stroke-width:0.264583"
           d="m 72.819743,223.81447 8.839763,9.1221 c 0.641607,1.09221 0.571091,0.80126 0.500347,2.30016 l -15.424021,27.85942 c -0.400819,0.52179 -0.618528,0.68976 -0.949277,0.25789 l -7.2022,-8.31453 c -0.335139,-0.36986 -0.415231,-0.31674 -0.140462,-1.00179 l 12.524681,-29.20751 c 0.759202,-1.55261 0.86337,-1.62248 1.851165,-1.01574 z"
           id="path9386" /></g><g
         id="g63642"><text
           xml:space="preserve"
           style="font-style:normal;font-variant:normal;font-weight:bold;font-stretch:normal;font-size:14.8511px;font-family:sans-serif;-inkscape-font-specification:'sans-serif Bold';fill:#1f527b;fill-opacity:1;stroke-width:0.0773495"
           x="77.878639"
           y="82.018135"
           id="text58119"
           transform="scale(0.99097496,1.0091072)"><tspan
             id="tspan58117"
             style="font-style:normal;font-variant:normal;font-weight:bold;font-stretch:normal;font-size:14.8511px;font-family:sans-serif;-inkscape-font-specification:'sans-serif Bold';fill:#1f527b;fill-opacity:1;stroke-width:0.0773495"
             x="77.878639"
             y="82.018135">GLASS</tspan></text><text
           xml:space="preserve"
           style="font-style:normal;font-variant:normal;font-weight:bold;font-stretch:normal;font-size:14.8281px;font-family:sans-serif;-inkscape-font-specification:'sans-serif Bold';fill:#42a8b8;fill-opacity:1;stroke-width:0.0772301"
           x="124.14684"
           y="81.891273"
           id="text61759"
           transform="scale(0.9894417,1.010671)"><tspan
             id="tspan61757"
             style="stroke-width:0.0772301"
             x="124.14684"
             y="81.891273">GRAD</tspan></text><text
           xml:space="preserve"
           style="font-style:normal;font-variant:normal;font-weight:bold;font-stretch:normal;font-size:3.52778px;font-family:sans-serif;-inkscape-font-specification:'sans-serif Bold';fill:#1e3c62;fill-opacity:1;stroke-width:0.0751501"
           x="160.87592"
           y="75.823418"
           id="text61763"
           transform="scale(1.016827,0.98345142)"><tspan
             id="tspan61761"
             style="font-style:normal;font-variant:normal;font-weight:bold;font-stretch:normal;font-size:3.52778px;font-family:sans-serif;-inkscape-font-specification:'sans-serif Bold';fill:#1e3c62;fill-opacity:1;stroke-width:0.0751501"
             x="160.87592"
             y="75.823418">TM</tspan></text><text
           xml:space="preserve"
           style="font-style:normal;font-variant:normal;font-weight:normal;font-stretch:normal;font-size:5.80343px;font-family:sans-serif;-inkscape-font-specification:sans-serif;letter-spacing:0px;fill:#1e3c62;fill-opacity:1;stroke-width:0.102315"
           x="81.128761"
           y="89.861031"
           id="text61970"
           transform="scale(0.96874892,1.0322592)"><tspan
             id="tspan61968"
             style="font-style:normal;font-variant:normal;font-weight:normal;font-stretch:normal;font-size:5.80343px;font-family:sans-serif;-inkscape-font-specification:sans-serif;stroke-width:0.102315"
             x="81.128761"
             y="89.861031">Engineered from Recycled Glass.</tspan></text></g></g></g></svg>
